HIERARCHY
ROOT Hips
{
	OFFSET 52.127499 -13.206715 85.400902
	CHANNELS 6 Xposition Yposition Zposition Xrotation Yrotation Zrotation
	JOINT spine
	{
		OFFSET 0.000000 -0.367607 6.392601
		CHANNELS 3 Xrotation Yrotation Zrotation
		JOINT spine1
		{
			OFFSET 0.000000 -0.000001 9.176109
			CHANNELS 3 Xrotation Yrotation Zrotation
			JOINT spine2
			{
				OFFSET 0.000000 -0.000002 8.792381
				CHANNELS 3 Xrotation Yrotation Zrotation
				JOINT Neck
				{
					OFFSET 0.000000 -1.076243 22.573700
					CHANNELS 3 Xrotation Yrotation Zrotation
					JOINT Head
					{
						OFFSET 0.000000 -0.000001 6.820114
						CHANNELS 3 Xrotation Yrotation Zrotation
						End Site
						{
							OFFSET 0.000000 5.444267 16.508499
						}
					}
				}
				JOINT RightShoulder
				{
					OFFSET -3.702209 0.515507 9.495087
					CHANNELS 3 Xrotation Yrotation Zrotation
					JOINT RightArm
					{
						OFFSET 0.000000 -0.000003 12.453705
						CHANNELS 3 Xrotation Yrotation Zrotation
						JOINT RightArmRoll
						{
							OFFSET 0.000000 -0.000001 6.286850
							CHANNELS 3 Xrotation Yrotation Zrotation
							JOINT RightForeArm
							{
								OFFSET 0.000000 -0.000003 18.311401
								CHANNELS 3 Xrotation Yrotation Zrotation
								JOINT RightForeArmRoll
								{
									OFFSET 0.000000 -0.000001 7.054825
									CHANNELS 3 Xrotation Yrotation Zrotation
									JOINT RightHand
									{
										OFFSET 0.000000 -0.000002 14.157501
										CHANNELS 3 Xrotation Yrotation Zrotation
										End Site
										{
											OFFSET 0.000000 0.000000 0.100006
										}
									}
								}
							}
						}
					}
				}
				JOINT LeftShoulder
				{
					OFFSET 3.702209 0.515507 9.495087
					CHANNELS 3 Xrotation Yrotation Zrotation
					JOINT LeftArm
					{
						OFFSET 0.000000 -0.000003 12.453705
						CHANNELS 3 Xrotation Yrotation Zrotation
						JOINT LeftArmRoll
						{
							OFFSET 0.000000 -0.000001 6.286865
							CHANNELS 3 Xrotation Yrotation Zrotation
							JOINT LeftForeArm
							{
								OFFSET 0.000000 -0.000003 18.311401
								CHANNELS 3 Xrotation Yrotation Zrotation
								JOINT LeftForeArmRoll
								{
									OFFSET 0.000000 -0.000001 7.054825
									CHANNELS 3 Xrotation Yrotation Zrotation
									JOINT LeftHand
									{
										OFFSET 0.000000 -0.000002 14.157501
										CHANNELS 3 Xrotation Yrotation Zrotation
										End Site
										{
											OFFSET 0.000000 0.000000 0.100006
										}
									}
								}
							}
						}
					}
				}
			}
		}
	}
	JOINT RightUpLeg
	{
		OFFSET -5.666161 0.871611 -1.039032
		CHANNELS 3 Xrotation Yrotation Zrotation
		JOINT RightUpLegRoll
		{
			OFFSET 0.000000 -0.000003 16.600502
			CHANNELS 3 Xrotation Yrotation Zrotation
			JOINT RightLeg
			{
				OFFSET 0.000000 0.000003 -20.557198
				CHANNELS 3 Xrotation Yrotation Zrotation
				JOINT RightLegRoll
				{
					OFFSET 0.000000 -0.000003 20.624397
					CHANNELS 3 Xrotation Yrotation Zrotation
					JOINT RightFoot
					{
						OFFSET 0.000000 -0.000003 17.166397
						CHANNELS 3 Xrotation Yrotation Zrotation
						JOINT RightToeBase
						{
							OFFSET 0.000000 -0.000003 14.350204
							CHANNELS 3 Xrotation Yrotation Zrotation
							End Site
							{
								OFFSET 0.006081 0.801060 6.949707
							}
						}
					}
				}
			}
		}
	}
	JOINT LeftUpLeg
	{
		OFFSET 5.666161 0.871611 -1.039032
		CHANNELS 3 Xrotation Yrotation Zrotation
		JOINT LeftUpLegRoll
		{
			OFFSET 0.000000 -0.000003 16.600601
			CHANNELS 3 Xrotation Yrotation Zrotation
			JOINT LeftLeg
			{
				OFFSET 0.000000 -0.000004 20.557098
				CHANNELS 3 Xrotation Yrotation Zrotation
				JOINT LeftLegRoll
				{
					OFFSET 0.000000 -0.000003 20.815102
					CHANNELS 3 Xrotation Yrotation Zrotation
					JOINT LeftFoot
					{
						OFFSET 0.000000 -0.000003 16.975693
						CHANNELS 3 Xrotation Yrotation Zrotation
						JOINT LeftToeBase
						{
							OFFSET 0.000000 -0.000003 14.350204
							CHANNELS 3 Xrotation Yrotation Zrotation
							End Site
							{
								OFFSET -0.027260 0.801060 6.949707
							}
						}
					}
				}
			}
		}
	}
}
MOTION
Frames: 4
Frame Time: 0.041667
52.539497 -10.218714 85.176498 1.133153 -0.112787 -20.762365 -1.419253 0.686731 -0.905299 1.175504 1.386789 -1.800362 2.820431 1.365275 -1.816846 20.265765 -3.761649 -4.185297 4.529870 12.354586 -5.700079 -13.268740 -58.132471 -15.640353 -48.680575 -117.373017 -94.335766 0.000001 0.000004 -0.000001 130.840374 10.821143 -37.361022 -0.000003 -0.000000 -3.002187 -5.000185 -7.998753 0.000180 5.301104 44.191450 -8.755881 -73.522922 120.400594 65.204333 0.000001 0.000001 0.000005 117.794863 -2.839263 4.360658 0.000004 0.000003 3.000001 -5.000210 7.998727 -0.000156 -8.542939 -172.654492 1.191572 -179.999991 0.000005 -0.947997 171.514943 -3.478596 -0.865615 -0.000001 0.000000 -0.034955 65.998902 6.275087 3.804950 25.457556 -7.355613 0.001015 -2.413434 172.577515 -0.417956 -0.000004 -0.000004 -1.062140 -11.768011 0.580974 0.572763 0.000004 -0.000001 -0.472463 74.660531 -6.735910 -2.154439 25.503402 7.347078 -0.067216 
52.551594 -10.218513 85.176506 1.172166 -0.131055 -20.526115 -1.430250 0.677928 -0.893912 1.153209 1.369203 -1.777594 2.798145 1.347912 -1.793864 20.365744 -3.499068 -4.279380 4.476102 11.941523 -5.747566 -12.765150 -58.045277 -15.036033 -48.818671 -117.438696 -93.967516 0.000000 0.000004 -0.000003 130.806934 10.716187 -37.057085 -0.000003 -0.000001 -3.002179 -5.000189 -7.998754 0.000178 5.195177 44.773680 -8.513590 -73.149427 119.945471 66.076220 0.000000 0.000000 0.000004 118.323137 -2.989743 5.071561 0.000003 0.000005 2.999999 -5.000209 7.998723 -0.000159 -8.524501 -172.636337 1.205346 -179.999991 0.000004 -0.948998 171.522033 -3.486576 -0.865366 -0.000001 0.000001 -0.035009 66.007652 6.277388 3.799240 25.457558 -7.355615 0.001015 -2.503227 172.572024 -0.395839 -0.000004 -0.000004 -1.060571 -11.727296 0.574948 0.572843 0.000003 -0.000002 -0.467371 74.602953 -6.734904 -2.161853 25.492894 7.347073 -0.052010 
52.543198 -10.216111 85.177299 1.209814 -0.149457 -20.288343 -1.440529 0.669249 -0.882765 1.132365 1.351846 -1.755309 2.777310 1.330786 -1.771378 20.458725 -3.228909 -4.375267 4.427572 11.521838 -5.796630 -12.259893 -57.949408 -14.428377 -48.952461 -117.513487 -93.586890 0.000001 0.000004 -0.000002 130.768903 10.610456 -36.744464 -0.000003 0.000000 -3.002180 -5.000187 -7.998752 0.000181 5.072094 45.345414 -8.253776 -72.813512 119.515497 66.969055 -0.000000 0.000001 0.000005 118.841767 -3.135168 5.779377 0.000002 0.000001 2.999999 -5.000207 7.998725 -0.000155 -8.504465 -172.619139 1.218619 -179.999991 0.000005 -0.948994 171.529150 -3.493561 -0.864964 -0.000001 0.000001 -0.035063 66.016804 6.279634 3.793594 25.457558 -7.355615 0.001016 -2.593082 172.567543 -0.373142 -0.000005 -0.000004 -1.058944 -11.686381 0.568463 0.573121 0.000003 -0.000001 -0.461863 74.541297 -6.733250 -2.171619 25.483202 7.347051 -0.038045 
52.548397 -10.217110 85.179092 1.245833 -0.168115 -20.049443 -1.449946 0.660706 -0.871925 1.113262 1.334749 -1.733663 2.758206 1.313917 -1.749523 20.542648 -2.950023 -4.472641 4.385752 11.095031 -5.846967 -11.753360 -57.843397 -13.817679 -49.084386 -117.597184 -93.197064 -0.000000 0.000005 -0.000003 130.725422 10.503802 -36.422991 -0.000003 0.000000 -3.002178 -5.000184 -7.998751 0.000179 4.929217 45.904909 -7.973503 -72.516692 119.118431 67.880278 0.000002 0.000003 0.000005 119.353758 -3.273949 6.477726 0.000005 0.000006 2.999998 -5.000210 7.998722 -0.000156 -8.482718 -172.601913 1.231158 -179.999991 0.000006 -0.948994 171.536199 -3.499570 -0.864420 -0.000001 0.000001 -0.035129 66.026339 6.281743 3.788296 25.457558 -7.355614 0.001015 -2.682822 172.563063 -0.349702 -0.000004 -0.000004 -1.057271 -11.645066 0.561439 0.573613 0.000003 -0.000002 -0.455889 74.475017 -6.730894 -2.183969 25.474609 7.347037 -0.025574 
